<?xml version="1.0" encoding="UTF-8" standalone="no"?>
<!-- Created with Inkscape (http://www.inkscape.org/) -->

<svg
   xmlns:dc="http://purl.org/dc/elements/1.1/"
   xmlns:cc="http://creativecommons.org/ns#"
   xmlns:rdf="http://www.w3.org/1999/02/22-rdf-syntax-ns#"
   xmlns:svg="http://www.w3.org/2000/svg"
   xmlns="http://www.w3.org/2000/svg"
   version="1.1"
   width="221.08749"
   height="55.262501"
   id="svg2"
   xml:space="preserve"><metadata
     id="metadata8"><rdf:RDF><cc:Work
         rdf:about=""><dc:format>image/svg+xml</dc:format><dc:type
           rdf:resource="http://purl.org/dc/dcmitype/StillImage" /><dc:title></dc:title></cc:Work></rdf:RDF></metadata><defs
     id="defs6" /><g
     transform="matrix(1.25,0,0,-1.25,0,55.2625)"
     id="g10"><g
       transform="scale(0.1,0.1)"
       id="g12"><path
         d="m 155.715,302.18 c 27.195,0 46.383,-21.742 46.383,-48.504 l -100.727,0 c 4.731,31.258 22.832,48.504 54.344,48.504 z m 141.883,-141.688 -98.645,0 c -8.57,-13.914 -27.262,-20.59 -44.297,-20.59 -33.058,0 -51.215,23.461 -53.836,56.336 l 202.645,0 c 0,112.649 -47.461,176.813 -157.324,176.813 C 58.6875,373.051 0,304.426 0,220.215 0,123.754 66.668,69.0742 155.195,69.0742 c 62.918,0 121.067,28.9727 142.403,91.4178 z m 287.3,205.262 -121.41,0 -33.199,-57.41 -32.617,57.41 -124.82,0 93.316,-137.18 -103.621,-152.242 124.223,0 41.82,70.832 43.484,-70.832 124.844,0 -105.383,152.242 93.363,137.18 z m 1088.782,0 c -42.07,0 -70.35,-7.805 -90.05,-36.805 l -1.14,0 0,37.817 -101.82,0 0,-290.434 105.52,0 0,152.82 c 0,46.282 24.02,55.782 42.18,55.782 30.97,0 34.71,-23.469 34.71,-56.903 l 0,-151.699 105.58,0 0,198.523 c 0,66.387 -45.38,90.899 -94.98,90.899 z m -317.31,-289.422 101.95,0 0,290.434 -101.95,0 0,-290.434 z M 1229.9,179.543 c -1.57,-30.141 -20.27,-45.289 -44.22,-45.289 -19.23,0 -33.05,13.492 -33.05,26.844 0,19.527 12.14,25.636 35.65,31.238 14.48,3.363 28.83,7.262 41.62,13.961 l 0,-26.754 z m -29.87,193.508 c -32.5,0 -67.69,-3.399 -94.41,-16.754 -27.21,-13.406 -46.38,-37.383 -47.94,-78.063 l 98.07,0 c 0.59,12.223 6.92,29.5 39.48,29.5 17.1,0 34.67,-7.191 34.67,-26.734 0,-18.34 -14.33,-22.855 -28.84,-25.629 -53.76,-10.598 -156.21,-7.281 -156.21,-98.758 0,-60.8083 44.27,-87.5388 97.62,-87.5388 34.12,0 66.64,7.8555 89.08,34.5548 l 1.03,0 c -0.53,-7.8243 1.1,-19.4884 3.69,-27.297 l 94.99,0 0,183.52 c 0,55.734 1.05,113.199 -131.23,113.199 z M 925.461,76.332 l 105.619,0 0,365.758 -105.619,0 0,-365.758 z m -170.875,73.07 c -37.871,0 -46.391,37.332 -46.391,71.375 0,34.594 8.52,71.907 46.391,71.907 46.992,0 59.949,-37.313 59.949,-71.907 0,-34.043 -10.359,-71.375 -59.949,-71.375 z m 35.668,216.352 c -51.688,0 -67.699,-13.363 -81.051,-31.82 l -1.008,0 0,31.82 -101.914,0 0,-365.754 105.625,0 0,108.109 1.028,0 c 16.054,-24.5113 44.257,-31.777 75.711,-31.777 92.796,0 117.878,75.301 117.878,143.258 0,72.551 -37.894,146.164 -116.269,146.164"
         id="path14"
         style="fill:#231f20;fill-opacity:1;fill-rule:nonzero;stroke:none" /></g></g></svg>